/* XPM */
static char * EA_xpm[] = {
"64 64 3 1",
" 	c None",
".	c #ffaaff",
"+	c #000000",
"................................................................",
"................................................................",
"................................................................",
"................................................................",
"................................................................",
"................................................................",
"................................................................",
"................................................................",
"................................................................",
"................................................................",
"................................................................",
"................................................................",
"................................................................",
"................................................................",
"................................................................",
"................................................................",
"................................................................",
"................................................................",
"................................................................",
"................................................................",
"................................................................",
"................................................................",
"................................................................",
"................................................................",
"....+++++++++++++......+++.........++++++....+++++++++++++......",
"......+++.......+......+++........+++....++..+....+++....+......",
"......+++.......+.....++++.......+++......+..+....+++....+......",
"......+++.............+.+++......+++......+.......+++...........",
"......+++.....+......+..+++......+++..............+++...........",
"......+++.....+......+..++++.....++++++...........+++...........",
"......+++++++++......+...+++......++++++++........+++...........",
"......+++.....+.....+....+++.......++++++++.......+++...........",
"......+++.....+.....+.....+++..........+++++......+++...........",
"......+++..........++++++++++............+++......+++...........",
"......+++..........+......++++...+.......+++......+++...........",
"......+++.......+..+.......+++...++......+++......+++...........",
"......+++.......+.+........+++...+++....+++.......+++...........",
"....+++++++++++++++++.....++++++...+++++++......+++++++.........",
"................................................................",
"................................................................",
"................................................................",
"................................................................",
"................................................................",
"................................................................",
"................................................................",
"................................................................",
"................................................................",
"................................................................",
"................................................................",
"................................................................",
"................................................................",
"................................................................",
"................................................................",
"................................................................",
"................................................................",
"................................................................",
"................................................................",
"................................................................",
"................................................................",
"................................................................",
"................................................................",
"................................................................",
"................................................................",
"................................................................"};
