/* XPM */
static char * NO_xpm[] = {
"64 64 3 1",
" 	c None",
".	c #aaaaff",
"+	c #000000",
"................................................................",
"................................................................",
"................................................................",
"................................................................",
"................................................................",
"................................................................",
"................................................................",
"................................................................",
"................................................................",
"................................................................",
"................................................................",
"................................................................",
"................................................................",
"................................................................",
"................................................................",
"................................................................",
"................................................................",
"................................................................",
"................................................................",
"................................................................",
"................................................................",
"................................................................",
"................................................................",
"................................................................",
".....+++....+++...++++++...++++++++...++++++++.++++...++++......",
"......+++....+...++....++...++...+++..+..++..+..++.....++.......",
"......++++...+..++......++..++....++.....++.....++.....++.......",
"......+.+++..+..++......++..++....++.....++.....++.....++.......",
"......+..++..+..++......++..++...+++.....++.....+++++++++.......",
"......+...++.+..++......++..++++++.......++.....++.....++.......",
"......+....+++..++......++..++...++......++.....++.....++.......",
"......+....+++...++....++...++....++.....++.....++.....++.......",
".....+++....++....++++++...++++...+++...++++...++++...++++......",
"................................................................",
"................................................................",
"................................................................",
"................................................................",
"................................................................",
"................................................................",
"................................................................",
"................................................................",
"................................................................",
"................................................................",
"................................................................",
"................................................................",
"................................................................",
"................................................................",
"................................................................",
"................................................................",
"................................................................",
"................................................................",
"................................................................",
"................................................................",
"................................................................",
"................................................................",
"................................................................",
"................................................................",
"................................................................",
"................................................................",
"................................................................",
"................................................................",
"................................................................",
"................................................................",
"................................................................"};
