/* XPM */
static char * SO_xpm[] = {
"64 64 3 1",
" 	c None",
".	c #aaffaa",
"+	c #000000",
"................................................................",
"................................................................",
"................................................................",
"................................................................",
"................................................................",
"................................................................",
"................................................................",
"................................................................",
"................................................................",
"................................................................",
"................................................................",
"................................................................",
"................................................................",
"................................................................",
"................................................................",
"................................................................",
"................................................................",
"................................................................",
"................................................................",
"................................................................",
"................................................................",
"................................................................",
"................................................................",
"................................................................",
"................................................................",
"................................................................",
".......+++++.....+++++....++++....+++.++++++++++.++++...++++....",
".....++....++..++.....++...++......+..+...++...+..++.....++.....",
".....++.....+..++.....++...++......+..+...++...+..++.....++.....",
".....+++......++.......++..++......+......++......++.....++.....",
".....++++++...++.......++..++......+......++......+++++++++.....",
".......++++++.++.......++..++......+......++......++.....++.....",
"..........+++.++.......++..++......+......++......++.....++.....",
".....+.....++..++.....++...++......+......++......++.....++.....",
".....++....++..++.....++....++....+.......++......++.....++.....",
"......++++++.....+++++.......+++++.......++++....++++...++++....",
"................................................................",
"................................................................",
"................................................................",
"................................................................",
"................................................................",
"................................................................",
"................................................................",
"................................................................",
"................................................................",
"................................................................",
"................................................................",
"................................................................",
"................................................................",
"................................................................",
"................................................................",
"................................................................",
"................................................................",
"................................................................",
"................................................................",
"................................................................",
"................................................................",
"................................................................",
"................................................................",
"................................................................",
"................................................................",
"................................................................",
"................................................................",
"................................................................"};
