/* XPM */
static char * WE_xpm[] = {
"64 64 3 1",
" 	c None",
".	c #ffbbaa",
"+	c #000000",
"................................................................",
"................................................................",
"................................................................",
"................................................................",
"................................................................",
"................................................................",
"................................................................",
"................................................................",
"................................................................",
"................................................................",
"................................................................",
"................................................................",
"................................................................",
"................................................................",
"................................................................",
"................................................................",
"................................................................",
"................................................................",
"................................................................",
"................................................................",
"................................................................",
"................................................................",
"................................................................",
"................................................................",
"...+++++....+++...++++.+++++++++++....++++++....+++++++++++.....",
"....+++.....+++.....+...+++......+...++....++...+...+++...+.....",
".....+++....+++....+....+++......+..+++.....+...+...+++...+.....",
".....+++...+.+++...+....+++....+....++++............+++.........",
".....+++...+.+++...+....+++....+....+++++++.........+++.........",
".....++++..+.+++..+.....++++++++.....++++++++.......+++.........",
"......+++.+...+++.+.....+++....+.......+++++++......+++.........",
"......+++.+...+++.+.....+++....+..........++++......+++.........",
"......+++++...++++......+++.........+......+++......+++.........",
".......+++....++++......+++......+..+......+++......+++.........",
".......+++.....+++......+++......+..++....+++.......+++.........",
".......+++.....++......+++++++++++...+++++++.......+++++........",
"................................................................",
"................................................................",
"................................................................",
"................................................................",
"................................................................",
"................................................................",
"................................................................",
"................................................................",
"................................................................",
"................................................................",
"................................................................",
"................................................................",
"................................................................",
"................................................................",
"................................................................",
"................................................................",
"................................................................",
"................................................................",
"................................................................",
"................................................................",
"................................................................",
"................................................................",
"................................................................",
"................................................................",
"................................................................",
"................................................................",
"................................................................",
"................................................................"};
